<svg id="SvgjsSvg1028" width="288" height="288" xmlns="http://www.w3.org/2000/svg" version="1.1" xmlns:xlink="http://www.w3.org/1999/xlink" xmlns:svgjs="http://svgjs.com/svgjs"><defs id="SvgjsDefs1029"></defs><g id="SvgjsG1030"><svg xmlns="http://www.w3.org/2000/svg" xmlns:xlink="http://www.w3.org/1999/xlink" width="288" height="288" viewBox="0 0 470 468"><defs><filter id="a" width="111.8%" height="111.9%" x="-5.9%" y="-3.9%" filterUnits="objectBoundingBox"><feOffset dy="5" in="SourceAlpha" result="shadowOffsetOuter1"></feOffset><feGaussianBlur in="shadowOffsetOuter1" result="shadowBlurOuter1" stdDeviation="4"></feGaussianBlur><feColorMatrix in="shadowBlurOuter1" result="shadowMatrixOuter1" values="0 0 0 0 0 0 0 0 0 0 0 0 0 0 0 0 0 0 0.078125 0"></feColorMatrix><feOffset dy="4" in="SourceAlpha" result="shadowOffsetOuter2"></feOffset><feGaussianBlur in="shadowOffsetOuter2" result="shadowBlurOuter2" stdDeviation="5.5"></feGaussianBlur><feColorMatrix in="shadowBlurOuter2" result="shadowMatrixOuter2" values="0 0 0 0 0 0 0 0 0 0 0 0 0 0 0 0 0 0 0.210824275 0"></feColorMatrix><feMerge><feMergeNode in="shadowMatrixOuter1"></feMergeNode><feMergeNode in="shadowMatrixOuter2"></feMergeNode></feMerge></filter><path id="b" d="M9.635 132.808C24.782 59.782 71.388 19.109 144.085 6.822c53.74-9.081 107.5-9.196 161.15.255 74.852 13.185 119.85 56.23 134.185 130.36 11.075 57.29 11.249 115.191-.174 172.427-15.324 72.52-63.132 117.285-135.561 129.527-53.74 9.08-107.5 9.195-161.15-.255-74.852-13.186-120.05-58.38-134.384-132.509-11.64-57.668-10.52-115.935 1.484-173.82z" fill="#0e153a" class="color000 svgShape"></path></defs><g fill="none" fill-rule="evenodd" transform="translate(-21 -26)"><g transform="translate(32 33)" fill="#0e153a" class="color000 svgShape"><use fill="#000" filter="url(#a)" xlink:href="#b"></use><use fill="#3DD736" xlink:href="#b"></use></g><path fill="#e2f3f5" d="M231.667 123.841c47.352 3.599 85.256 40.985 89.672 88.104h-89.672v-88.103zm-86.115 39.47c16.069-21.798 40.983-36.67 69.448-39.322v84.353l-69.448-45.03zM224.166 103c-64.71 0-117.168 52.458-117.168 117.168 0 64.708 52.459 117.165 117.168 117.165 13.768 0 26.977-2.382 39.249-6.743l-6.32-17.514a97.412 97.412 0 0 1-32.93 5.7c-53.907 0-97.608-43.701-97.608-97.608 0-15.688 3.706-30.507 10.282-43.64l78.16 51.14 106.493-.055c-1.86 24.632-12.86 46.71-29.618 62.857l13.322 13.322c22.267-21.327 36.137-51.356 36.137-84.624 0-64.71-52.459-117.168-117.167-117.168z" transform="translate(32 33)" class="colorFFF svgShape"></path></g></svg></g></svg>